<svg version="1.1" id="Layer_1" xmlns="http://www.w3.org/2000/svg" xmlns:xlink="http://www.w3.org/1999/xlink" x="0px" y="0px"
	 viewBox="0 0 513.156 513.156" style="enable-background:new 0 0 513.156 513.156;" xml:space="preserve">
<path style="fill:#61AEAC;" d="M272.108,0.578l1.048,276h-272c10.216,132.028,121.352,236,256,236c141.384,0,256-114.612,256-256
	C513.156,120.218,405.44,9.086,272.108,0.578z"/>
<path style="fill:#406A80;" d="M254.844,0.606C114.844,1.166,0,115.538,0,256.578c0,1.34,1.132,2.664,1.156,4h253.688V0.606z"/>
<path style="fill:#93D1CF;" d="M273.156,284.578h5.688v-8V0.994c0-0.252-4.696-0.248-7.368-0.416l1.68,276h-272
	c0.208,2.684,0.524,5.34,0.816,8H273.156z"/>
</svg>
